PathFileType	4	(X/Y/Z)	pose2sim_0-766.trc
DataRate	CameraRate	NumFrames	NumMarkers	Units	OrigDataRate	OrigDataStartFrame	OrigNumFrames
50	50	8	22	m	50	0	767
Frame#	Time	Hip			RHip			RKnee			RAnkle			RBigToe			RSmallToe			RHeel			LHip			LKnee			LAnkle			LBigToe			LSmallToe			LHeel			Neck			Head			Nose			RShoulder			RElbow			RWrist			LShoulder			LElbow			LWrist			
		X1	Y1	Z1	X2	Y2	Z2	X3	Y3	Z3	X4	Y4	Z4	X5	Y5	Z5	X6	Y6	Z6	X7	Y7	Z7	X8	Y8	Z8	X9	Y9	Z9	X10	Y10	Z10	X11	Y11	Z11	X12	Y12	Z12	X13	Y13	Z13	X14	Y14	Z14	X15	Y15	Z15	X16	Y16	Z16	X17	Y17	Z17	X18	Y18	Z18	X19	Y19	Z19	X20	Y20	Z20	X21	Y21	Z21	X22	Y22	Z22	
0	0.0	0.12367769121119282	0.8533085683233804	-0.024492811211718722	0.03215102494795623	0.8426045902707187	-0.021032879469187894	0.01204130577368511	0.4549580329190933	-0.06871940523020066	-0.003079046617572892	0.07624853681085898	-0.09126300278039806	-0.03214624695705173	0.038718346472648865	0.09270087575071083	-0.07308078090767067	0.03863218947061796	0.03406302105024504	0.007905523849932624	0.03077151260938407	-0.11447317838442385	0.2222224687376114	0.8389620234531272	-0.02618910864090612	0.23354889435579723	0.45692471852594674	-0.07110188371092559	0.2527195324780993	0.0818837379182571	-0.08722444062510158	0.2930188754464366	0.042734481261733744	0.07187449762850993	0.325775041257365	0.04220555165011119	0.015701142045784395	0.23775023353755778	0.035883139070097415	-0.10669574031809147	0.130107017078579	1.3992416333404485	-0.011508789868105248	0.13881793438944726	1.6232753620951896	0.02248875455021995	0.13953236143668413	1.504919649317417	0.08621845679904955	-0.020305926804291337	1.2962932626529373	-0.025865596167603044	-0.09430363900842853	1.054511520102874	-0.025606536430946264	-0.15825987570354164	0.8341281224979679	-0.014143893599183511	0.2793639058777504	1.299317500697775	-0.04282998295086808	0.3408890348949805	1.0521874851629278	-0.04496559891717024	0.3988042821685948	0.8276415048121878	-0.045414507577815275
1	0.02	0.12488457832061808	0.8456001888057328	-0.030661106854055858	0.024812083527336687	0.8352251914483868	-0.029196060716466847	0.012398595300920088	0.4560447270891085	-0.06884758372133261	-5.802529671599276e-05	0.07942293384944818	-0.08405291970408665	-0.039138506571640905	0.03486894967861981	0.07252662573818039	-0.0758673477034648	0.036690952704942686	0.01763404298457498	0.011240410977567825	0.03792396088939611	-0.11122045631189978	0.22550286750496462	0.8333576762815448	-0.030268780312578004	0.23472390364181625	0.45284124010323284	-0.06547088043306704	0.2560335636551083	0.08359788636849992	-0.07892087313268037	0.29948846772417587	0.03775201503771406	0.06820307702228995	0.3319441636859873	0.038553781950542244	0.016914045106926335	0.24426054870172217	0.04089851713192012	-0.11092983776495811	0.12746838554188006	1.3951048080800599	-0.014289167546986139	0.14276250935636184	1.6247707580873556	0.029316828022122026	0.1468328465644691	1.5077234156224335	0.1362428870594099	-0.021880614090086188	1.2983682030703239	-0.027678259143663536	-0.09613959995018537	1.0573911091497044	-0.025618849377854407	-0.1621165844233601	0.8389939752463558	-0.015682411684104815	0.27368529049860374	1.301308320237104	-0.048083555497032984	0.34062060769948677	1.055611091497261	-0.04409182600869738	0.4026870610997196	0.8305938017217865	-0.04452552737084518
2	0.04	0.12479752775771782	0.8450370552122446	-0.0339578351337773	0.024574636745371744	0.8321739151040858	-0.033977716051515165	0.013517771881970878	0.4540480885213739	-0.07274530431580385	0.00043166739597568513	0.07882528100125868	-0.08524271399121841	-0.036838913327645974	0.03785200476525025	0.08107653057864148	-0.07685945559307526	0.03850052763508596	0.020893607947305496	0.010329607892484334	0.03982533779330787	-0.11129926847703854	0.22387396977948026	0.8305358010967693	-0.03775772240682869	0.2349803978296181	0.45218120288227737	-0.07147534258441116	0.25335376491879696	0.08274983232604731	-0.07716794722563482	0.29675764018337636	0.03954070529372073	0.07312329974074623	0.3305266821010726	0.04038448415509146	0.019831235239520347	0.24305962130087214	0.03991161992885227	-0.11143365159196146	0.12767475390469418	1.3973361341512598	-0.011423181726886973	0.14138259180294074	1.62375356017065	0.023169304714447284	0.1429705451725944	1.5075111173716933	0.12634668723821169	-0.019345247087452156	1.3001405246559268	-0.029768307924857348	-0.09618034616466999	1.0578592543577996	-0.02740380384021436	-0.16447678302549168	0.8419778734347237	-0.0177831519158921	0.27395628509865055	1.3020029163510882	-0.0453363936656347	0.3406463381842887	1.0560314920960328	-0.05256912344444546	0.4039695113725913	0.8297481215761882	-0.04680847132125036
3	0.06	0.1254895213033129	0.84438877126294	-0.03214688264390705	0.025447683483576313	0.8327090941151762	-0.031789059570257454	0.011720478320948257	0.4539049978454476	-0.0710829459583719	-0.0018171865300263725	0.07896630937092873	-0.07970798613653954	-0.038436509238661425	0.03962282112963774	0.08031763473630861	-0.07608461043344338	0.03869003353247232	0.02260619379787603	0.01100763351563239	0.03887694367262143	-0.11058705200981085	0.22582422452898226	0.8310157272664044	-0.032152922615576736	0.23509104728010427	0.4507645880874022	-0.06694108323818879	0.25507699789125704	0.08178535972219697	-0.07778013791738633	0.2999278525102901	0.0385912806580637	0.07489308617302975	0.3308980594893197	0.04056955587486841	0.01984633160988181	0.2422492678450353	0.040088171822950464	-0.10647306529134673	0.1284611886766726	1.3970845485784744	-0.00977121990385763	0.1407855768527218	1.6235332460719778	0.021889071179696375	0.14119533446898025	1.5069891929236416	0.12728511346373317	-0.018533616534184606	1.2990685333483105	-0.029074569774172186	-0.097778772758902	1.0574951046103143	-0.02870420098375063	-0.16499770026357458	0.8403746006597127	-0.02081109014413025	0.2756921755342	1.3017096673485666	-0.03995108549932152	0.3424526493208243	1.0561842820898713	-0.046690405414209574	0.4044489451396433	0.830256077861099	-0.042612905610712015
4	0.08	0.1246919030173384	0.8509141501048679	-0.027002338228137964	0.02974283392036439	0.8416076318562221	-0.025156021797612216	0.012125287145381485	0.4576093378744767	-0.06778037277104802	-0.0006944077559882187	0.07696746483803506	-0.09045675216938505	-0.03438730702884404	0.040531836016018126	0.08901579634338665	-0.07783096988016805	0.0382882379134246	0.0300809645809518	0.010119727060643307	0.029033247562518984	-0.11384897752647322	0.22224369503737432	0.8390121894642218	-0.024286316910759036	0.23361807532283785	0.4594202809674133	-0.06981161279059717	0.2526641901247155	0.0800117295722938	-0.08716162198307757	0.290358070032678	0.0400287383609109	0.075141841106487	0.3246049761889463	0.03885800595991042	0.02012121431382478	0.23909278676783924	0.032007287442892184	-0.10163229583675044	0.13131455864705516	1.3991842712832545	-0.006590755714784305	0.14000882783875926	1.6225625098859053	0.017080996633179	0.13547266629630922	1.506183417946929	0.08907565108908094	-0.018956171144103768	1.2978565154805803	-0.026813074501006715	-0.09514754739181529	1.053934496825129	-0.026246429291899787	-0.1656756610881546	0.8357443964742057	-0.010289677089895432	0.279253050708705	1.2996227682872548	-0.04075177387075811	0.3419309093531673	1.053410125758341	-0.04943929657561415	0.40320331566341705	0.8289371479606945	-0.04889764295207216
5	0.1	0.1248300328056388	0.8485943461623283	-0.034377540178982674	0.026268131558861915	0.8405698689447039	-0.030195617615246504	0.010814047925897938	0.4567699047932727	-0.07038828813317868	-0.0003969336496770713	0.0774853907505033	-0.08124127357610411	-0.039838433372326114	0.03432677857649984	0.07738264243811442	-0.07790474771667277	0.0363212302463346	0.017528552446231718	0.009574599227776372	0.0360323774174334	-0.11067285221169097	0.22549093067166406	0.8376604771451539	-0.03232302731706409	0.23454143154084173	0.45742384813456194	-0.06853954540692458	0.2570229146104348	0.0817145327830558	-0.07843453241504954	0.301529053375043	0.03750203935056381	0.07308457809187026	0.33092532703365757	0.03835410207328962	0.0173396136270411	0.24407694602488822	0.03875045519777596	-0.10865078975365451	0.12858222607456074	1.3959778878392537	-0.013253032308286408	0.14114555464179213	1.6238890112190592	0.02406160039448361	0.14886313951465882	1.5070527585273397	0.12859205771729637	-0.02205348186490623	1.3003184728159496	-0.02349370594953584	-0.09631297147290496	1.05670966166545	-0.02180556572365039	-0.16895720417454513	0.8397030288624422	-0.013920994558786677	0.2747142892321206	1.3006176220047019	-0.04731960794042949	0.34305313380320895	1.056049159437666	-0.04577235749239934	0.40644933852649384	0.8310791435627738	-0.04605593790349803
6	0.12	0.12463543466578102	0.8436813680766169	-0.0296509669658823	0.024619811780077168	0.8332877677680111	-0.030073330753783968	0.011761845306004786	0.4538634898232543	-0.07013788936682307	-0.0003775723056179701	0.0755268061494398	-0.08212306595577384	-0.038065526570323006	0.03602738421031846	0.08395748066188885	-0.07749316249022185	0.03771531919836137	0.020756988483134266	0.01140980283275657	0.03661404982339432	-0.10944357571998493	0.22547494411010785	0.8305526623216443	-0.037439350330059004	0.23731792929185613	0.45197254643878465	-0.07116797857267453	0.2557997709928671	0.0810026390596754	-0.07862783999562041	0.30199985503888027	0.03769169454109785	0.08050259369267115	0.33182177383922273	0.03846348722548683	0.024276311470325378	0.24595521835113704	0.03919085954018407	-0.1072488538658116	0.12756031426258202	1.3962777729982239	-0.007399108900404778	0.14118116681485626	1.6238629334431158	0.02705329964398165	0.145182132881774	1.5064581031893007	0.1283169517586892	-0.0196133003301315	1.298050023576317	-0.02617272971556536	-0.09785897858890691	1.0570359509003326	-0.027697934043190167	-0.17062406293066176	0.8410454347318447	-0.018584402503522314	0.2727103965913936	1.3021626991694364	-0.04364670345925653	0.3434160558409905	1.0571029150555442	-0.04587835818512391	0.40938996253861704	0.832326203052819	-0.04271164898133774
7	0.14	0.12546870739086968	0.8450826790340492	-0.03214444216176349	0.02540605230472836	0.8358563365717909	-0.033824695555590485	0.011442237572970073	0.45547190012888755	-0.06998881042657133	0.0002742875045369366	0.07718204481147369	-0.07925723676482485	-0.03718683356472994	0.03509123490299843	0.082463445832877	-0.07687532301099029	0.03693225905348831	0.023667411576374472	0.013515611074710708	0.035623676884544535	-0.10847520576247513	0.22477365253855533	0.8317542121321849	-0.034839236725769114	0.23667531378003664	0.4521532072189324	-0.06917179521223749	0.25375493126968846	0.08145359406927331	-0.07806143257650842	0.2998083836945024	0.039405687506898324	0.07993781439228101	0.3321886646949665	0.04145894122105239	0.025423834461521997	0.2451760539078533	0.038338591786371536	-0.10603046034304237	0.1283662280962485	1.3970767165685736	-0.009067134694868743	0.14196221295794198	1.622696503437571	0.025577178046046783	0.14096502228206093	1.506358007884096	0.1275512120849453	-0.018813607445663492	1.2989490037152218	-0.028197919796846996	-0.09711327499676023	1.056976223832104	-0.030152044484503978	-0.16985442285945754	0.8411045691441464	-0.021708457478696715	0.27336529061587983	1.3030592683144395	-0.04446272400176676	0.34133669121767773	1.0557079247084438	-0.0483281342730375	0.4087856846689829	0.8309766480057794	-0.04494484335421183
